<svg version="1.1" id="Layer_1" xmlns="http://www.w3.org/2000/svg" xmlns:xlink="http://www.w3.org/1999/xlink" x="0px" y="0px"
	 width="100%" viewBox="0 0 1320 1000" enable-background="new 0 0 1320 1000" xml:space="preserve">
<path fill="#FFFFFF" opacity="1.000000" stroke="none" 
	d="
M1231.000000,1001.000000 
	C820.666687,1001.000000 410.833344,1001.000000 1.000000,1001.000000 
	C1.000000,667.666687 1.000000,334.333344 1.000000,1.000000 
	C441.000000,1.000000 881.000000,1.000000 1321.000000,1.000000 
	C1321.000000,334.333344 1321.000000,667.666687 1321.000000,1001.000000 
	C1291.166626,1001.000000 1261.333374,1001.000000 1231.000000,1001.000000 
M208.275986,522.221558 
	C211.347290,523.658997 215.667557,524.278992 217.247208,526.692627 
	C221.385971,533.016541 225.843216,540.027954 218.803757,547.480835 
	C218.692123,547.598999 218.620178,547.759277 218.546951,547.908386 
	C215.006866,555.115112 216.689209,561.626770 223.411255,566.097229 
	C226.174622,567.935059 229.172180,569.416565 231.994507,571.170654 
	C241.194534,576.888611 247.939987,575.575439 253.868713,566.479004 
	C255.408691,564.116211 256.675293,564.229675 259.125122,564.799866 
	C265.078796,566.185364 271.180756,567.877808 277.208862,567.825439 
	C296.698273,567.655945 316.601746,570.760010 335.103088,561.376831 
	C336.663635,563.906555 337.948059,566.012085 339.255310,568.103333 
	C343.306458,574.584229 350.775391,576.662964 357.451752,572.989319 
	C361.655975,570.675903 365.769379,568.181519 369.811066,565.592712 
	C374.950867,562.300537 377.025635,555.439453 374.626282,549.770752 
	C373.659698,547.487000 372.606781,545.149414 371.124237,543.191345 
	C366.557617,537.159973 364.195038,531.160583 368.788391,523.898865 
	C370.314941,521.485474 370.931641,518.293457 371.270844,515.376770 
	C371.877228,510.162537 373.376495,506.967560 379.708252,507.578583 
	C383.498566,507.944397 386.209137,505.293488 386.251434,500.982910 
	C386.294373,496.604065 383.463440,494.819916 379.704742,494.243866 
	C377.636658,493.926941 375.480103,494.187103 373.370575,494.187103 
	C372.806488,491.373260 372.433197,489.086212 371.885040,486.841858 
	C365.737793,461.673676 350.475433,444.401367 325.668732,437.165161 
	C305.928406,431.406891 285.491302,433.306183 265.265686,435.623413 
	C262.936188,435.890289 260.355011,435.708160 258.148285,434.966949 
	C251.874542,432.859650 245.783432,430.212738 239.526047,428.051483 
	C234.361511,426.267670 231.394821,427.892639 229.643219,433.151276 
	C228.912430,435.345245 228.382782,437.623627 227.962173,439.900665 
	C225.887558,451.131927 226.774185,463.166748 218.942490,472.825287 
	C218.746643,473.066833 218.711411,473.441284 218.610535,473.756744 
	C217.327332,477.769379 214.966934,480.303345 210.370941,480.071320 
	C209.064575,480.005402 207.725708,480.344452 206.418030,480.585938 
	C200.802246,481.622894 199.058563,483.636169 199.012756,489.332153 
	C198.957825,496.162994 198.998581,502.994598 198.999512,509.825867 
	C199.000702,518.514038 199.486740,519.215942 208.275986,522.221558 
M955.031494,525.317749 
	C955.034241,513.654785 954.980164,501.991272 955.085571,490.329254 
	C955.107788,487.866425 955.380615,485.303558 956.118042,482.970062 
	C957.872803,477.416931 963.328552,474.516022 969.699524,475.386841 
	C975.034363,476.116058 977.634827,479.006348 978.062988,485.402649 
	C978.418518,490.714111 978.395813,496.054810 978.427734,501.383209 
	C978.480408,510.170746 978.441956,518.958862 978.441956,527.755371 
	C985.446777,527.755371 991.879089,527.755371 998.753967,527.755371 
	C998.753967,521.054504 998.729004,514.596008 998.760681,508.137817 
	C998.796692,500.808350 998.601807,493.462616 999.030701,486.154694 
	C999.427795,479.387085 1004.058105,475.486755 1010.979858,475.252716 
	C1017.285156,475.039551 1020.586914,478.032654 1021.604980,485.257446 
	C1021.997559,488.044250 1021.943054,490.905334 1021.951782,493.733002 
	C1021.986633,505.017090 1021.966125,516.301331 1021.966125,527.636780 
	C1028.921753,527.636780 1035.451782,527.636780 1042.068970,527.636780 
	C1042.068970,521.603638 1042.182983,515.937195 1042.044312,510.277008 
	C1041.783691,499.634460 1041.946167,488.937561 1040.870605,478.371399 
	C1039.803711,467.890015 1033.875366,462.656036 1023.403503,460.856934 
	C1012.138428,458.921570 1002.098328,461.636841 993.235107,468.758423 
	C981.375488,458.140076 972.379272,457.511047 955.238220,466.231598 
	C955.096069,464.589447 954.961548,463.035889 954.824707,461.455292 
	C948.119629,461.455292 941.712646,461.455292 935.355591,461.455292 
	C935.355591,483.803802 935.355591,505.850067 935.355591,528.006348 
	C941.043823,528.006348 946.373779,528.103455 951.694824,527.928162 
	C952.821289,527.891052 953.914917,526.857788 955.031494,525.317749 
M596.391846,482.049530 
	C598.977417,475.265320 601.562988,468.481079 604.284180,461.341064 
	C597.240173,461.341064 590.796875,461.341064 583.920471,461.341064 
	C580.191528,473.088287 576.430237,484.937408 572.268616,498.047729 
	C569.473328,489.117157 567.023315,481.255859 564.551697,473.401367 
	C560.478577,460.457214 560.472656,460.458649 546.766846,461.274200 
	C546.616882,461.283081 546.472229,461.383087 545.933777,461.593506 
	C542.271301,473.166382 538.527710,484.995667 534.478088,497.792053 
	C530.385254,484.984619 526.601318,473.143646 522.866882,461.457581 
	C516.007751,461.457581 509.449860,461.457581 502.917419,461.457581 
	C502.917419,462.089294 502.821564,462.454926 502.931122,462.742249 
	C510.917328,483.687469 518.916321,504.627777 526.934875,525.560669 
	C527.223572,526.314209 527.681152,527.580627 528.121948,527.607910 
	C532.085327,527.853149 536.130127,528.310486 539.997314,527.712219 
	C541.261719,527.516602 542.306824,524.495361 543.054443,522.608704 
	C546.444885,514.052856 549.693054,505.440704 553.340759,495.941650 
	C556.333862,503.662872 558.908508,510.317139 561.492554,516.967834 
	C566.000854,528.571167 566.003235,528.570251 578.996826,527.793152 
	C584.669373,512.872375 590.390991,497.822357 596.391846,482.049530 
M678.052307,495.500000 
	C678.052307,516.734436 678.052307,537.968811 678.052307,559.311401 
	C685.035889,559.311401 691.313843,559.311401 698.091675,559.311401 
	C698.091675,553.488892 698.091675,547.872498 698.091675,542.256104 
	C698.091675,536.513367 698.091675,530.770630 698.091675,524.826355 
	C716.207764,532.041748 730.987732,528.730347 739.794556,515.825073 
	C749.048340,502.264984 747.894287,482.692444 737.064270,470.866455 
	C728.826660,461.871338 711.752686,455.628296 698.405029,464.831696 
	C698.147766,463.577850 697.909973,462.418701 697.702087,461.405640 
	C691.074768,461.405640 684.798401,461.405640 678.052307,461.405640 
	C678.052307,472.598907 678.052307,483.549469 678.052307,495.500000 
M1120.983398,507.345032 
	C1121.625610,502.595215 1122.970337,497.819122 1122.793945,493.099915 
	C1121.759888,465.444153 1092.341309,452.801819 1075.320190,464.864349 
	C1075.086548,463.594177 1074.872803,462.431824 1074.678955,461.377869 
	C1068.049194,461.377869 1061.771118,461.377869 1055.285889,461.377869 
	C1055.285889,494.115021 1055.285889,526.631165 1055.285889,559.209595 
	C1061.985352,559.209595 1068.390625,559.209595 1075.314575,559.209595 
	C1075.314575,547.558777 1075.314575,536.217896 1075.314575,525.728210 
	C1080.757080,526.906006 1085.865234,528.955872 1090.964966,528.935303 
	C1105.438477,528.876953 1115.387695,521.556335 1120.983398,507.345032 
M619.320923,478.074982 
	C621.029907,479.029358 622.738831,479.983765 624.360291,480.889313 
	C629.423401,476.377380 635.124023,475.639862 640.823242,477.955444 
	C642.968567,478.827087 644.231201,481.871124 645.896240,483.924805 
	C641.606689,484.991516 638.378784,484.558899 635.314209,485.082611 
	C629.161133,486.134094 622.751221,486.881927 617.077820,489.259613 
	C608.609009,492.808838 604.328979,501.929413 605.434326,511.020691 
	C606.635803,520.902588 610.986877,525.616394 621.384033,528.129272 
	C629.672180,530.132385 637.539307,529.091125 644.370850,524.662109 
	C645.565552,525.919250 646.512512,527.808289 647.549500,527.859131 
	C653.461304,528.148376 659.394531,527.999512 665.583801,527.999512 
	C665.583801,511.971497 665.966614,496.516998 665.446655,481.092957 
	C665.110779,471.130768 659.178467,464.601746 649.423157,461.892120 
	C645.935608,460.923401 642.227539,460.342804 638.613647,460.310364 
	C627.381958,460.209473 617.519226,463.608612 609.780029,472.583099 
	C612.939575,474.426147 615.801514,476.095581 619.320923,478.074982 
M868.447266,524.116577 
	C879.504822,530.946777 890.636536,530.698975 901.800903,524.168701 
	C901.955261,525.579224 902.077026,526.692017 902.192017,527.742981 
	C908.849731,527.742981 915.272766,527.742981 921.921387,527.742981 
	C921.921387,511.862946 922.145203,496.238556 921.822632,480.625519 
	C921.671631,473.312531 917.740601,467.784027 911.325989,464.121490 
	C897.730835,456.359222 876.272949,460.391571 866.299683,472.698425 
	C871.062012,475.426453 875.804321,478.142975 880.494263,480.829529 
	C890.667480,473.869720 899.935547,475.555145 901.672485,484.995056 
	C898.826660,484.995056 895.993408,484.629852 893.290283,485.067810 
	C886.797058,486.119751 879.903564,486.483215 874.000854,489.039368 
	C860.234253,495.000946 857.345520,513.249939 868.447266,524.116577 
M802.813171,517.119019 
	C807.757812,505.660553 804.878479,497.327759 793.548218,492.194977 
	C788.143433,489.746552 782.225830,488.447601 776.593750,486.475739 
	C773.994324,485.565643 770.540771,484.730164 771.747131,480.893829 
	C772.913818,477.183685 776.415527,476.457794 779.536011,477.736664 
	C783.877380,479.515930 787.887512,482.103271 791.771545,484.200073 
	C795.496643,480.431488 799.643921,476.235779 803.938782,471.890686 
	C802.557800,470.708344 800.983582,469.225861 799.274963,467.919159 
	C786.946228,458.490662 772.098999,457.744232 760.839539,465.942932 
	C750.596375,473.401550 750.120972,487.893188 760.243774,495.369873 
	C763.766235,497.971466 768.120544,499.576141 772.279419,501.148132 
	C775.986450,502.549377 780.024841,503.065491 783.754822,504.419281 
	C785.022400,504.879333 786.390808,506.612549 786.588562,507.932526 
	C786.723877,508.835663 784.934204,510.916840 783.968628,510.939850 
	C779.996704,511.034546 775.790100,511.234039 772.098206,510.054230 
	C769.013977,509.068634 766.526306,506.216217 763.817810,504.222443 
	C759.614929,508.462494 755.536011,512.577454 750.739319,517.416504 
	C755.473938,520.398376 759.823975,523.783936 764.688599,526.078552 
	C778.322754,532.509827 794.664673,528.700195 802.813171,517.119019 
M460.739075,497.866608 
	C467.042999,499.900787 473.402435,501.784241 479.612885,504.072144 
	C481.220184,504.664307 482.360504,506.523987 483.715332,507.801361 
	C482.349243,509.090790 481.031769,511.399902 479.607422,511.467865 
	C476.109802,511.634735 472.318878,511.394409 469.105865,510.139954 
	C466.012787,508.932343 463.496796,506.246796 460.587311,504.107758 
	C456.473785,508.311829 452.407776,512.467346 448.338257,516.626404 
	C458.426300,528.726440 477.278381,532.804688 490.932190,525.528870 
	C497.663361,521.942017 501.865234,516.333801 501.985962,508.377594 
	C502.106964,500.402252 497.879608,495.219574 490.800110,492.283752 
	C486.828156,490.636658 482.653839,489.476715 478.567780,488.106079 
	C476.209686,487.315002 473.672180,486.849060 471.546265,485.650177 
	C470.160095,484.868439 468.328888,482.812866 468.560028,481.722961 
	C468.884399,480.193329 470.735413,478.366425 472.307556,477.882751 
	C474.188751,477.304047 476.749664,477.421173 478.509644,478.277710 
	C482.154968,480.051758 485.465302,482.514160 488.920563,484.698029 
	C492.836761,480.832977 496.966675,476.757050 501.091217,472.686401 
	C492.938873,463.159973 479.578857,458.233063 468.433441,461.044006 
	C459.585541,463.275482 452.404694,467.835876 450.249695,477.497009 
	C448.428864,485.659729 451.717651,492.012085 460.739075,497.866608 
M837.103394,491.490662 
	C837.103394,487.052582 837.103394,482.614532 837.103394,477.658051 
	C842.724670,477.658051 847.788025,477.658051 852.658813,477.658051 
	C852.658813,471.881256 852.658813,466.641022 852.658813,461.037964 
	C847.391602,461.037964 842.463379,461.037964 837.134766,461.037964 
	C837.134766,454.601654 837.134766,448.522064 837.134766,442.384644 
	C830.196472,442.384644 823.683655,442.384644 816.802979,442.384644 
	C816.802979,448.861450 816.802979,454.947815 816.802979,460.997650 
	C814.313721,461.134796 812.206482,461.250916 809.971069,461.374084 
	C809.971069,466.944550 809.971069,472.222900 809.971069,477.632690 
	C812.412048,477.796295 814.644958,477.945953 817.063232,478.108032 
	C817.063232,483.641693 816.957703,488.785950 817.092346,493.923889 
	C817.231567,499.234375 817.212769,504.593567 817.947327,509.835541 
	C820.208984,525.975525 835.488831,534.017639 850.307129,526.968079 
	C851.486938,526.406799 852.795837,524.740234 852.882690,523.505676 
	C853.193665,519.082153 853.004578,514.623535 853.004578,509.665558 
	C851.509277,510.425812 850.536743,510.987732 849.512634,511.430054 
	C842.478760,514.467529 838.123840,512.083069 837.324341,504.446106 
	C836.910461,500.492310 837.155701,496.469513 837.103394,491.490662 
z"/>
<path fill="#FF2E63" opacity="1.000000" stroke="none" 
	d="
M207.887726,522.169922 
	C199.486740,519.215942 199.000702,518.514038 198.999512,509.825867 
	C198.998581,502.994598 198.957825,496.162994 199.012756,489.332153 
	C199.058563,483.636169 200.802246,481.622894 206.418030,480.585938 
	C207.725708,480.344452 209.064575,480.005402 210.370941,480.071320 
	C214.966934,480.303345 217.327332,477.769379 218.610535,473.756744 
	C218.711411,473.441284 218.746643,473.066833 218.942490,472.825287 
	C226.774185,463.166748 225.887558,451.131927 227.962173,439.900665 
	C228.382782,437.623627 228.912430,435.345245 229.643219,433.151276 
	C231.394821,427.892639 234.361511,426.267670 239.526047,428.051483 
	C245.783432,430.212738 251.874542,432.859650 258.148285,434.966949 
	C260.355011,435.708160 262.936188,435.890289 265.265686,435.623413 
	C285.491302,433.306183 305.928406,431.406891 325.668732,437.165161 
	C350.475433,444.401367 365.737793,461.673676 371.885040,486.841858 
	C372.433197,489.086212 372.806488,491.373260 373.370575,494.187103 
	C375.480103,494.187103 377.636658,493.926941 379.704742,494.243866 
	C383.463440,494.819916 386.294373,496.604065 386.251434,500.982910 
	C386.209137,505.293488 383.498566,507.944397 379.708252,507.578583 
	C373.376495,506.967560 371.877228,510.162537 371.270844,515.376770 
	C370.931641,518.293457 370.314941,521.485474 368.788391,523.898865 
	C364.195038,531.160583 366.557617,537.159973 371.124237,543.191345 
	C372.606781,545.149414 373.659698,547.487000 374.626282,549.770752 
	C377.025635,555.439453 374.950867,562.300537 369.811066,565.592712 
	C365.769379,568.181519 361.655975,570.675903 357.451752,572.989319 
	C350.775391,576.662964 343.306458,574.584229 339.255310,568.103333 
	C337.948059,566.012085 336.663635,563.906555 335.103088,561.376831 
	C316.601746,570.760010 296.698273,567.655945 277.208862,567.825439 
	C271.180756,567.877808 265.078796,566.185364 259.125122,564.799866 
	C256.675293,564.229675 255.408691,564.116211 253.868713,566.479004 
	C247.939987,575.575439 241.194534,576.888611 231.994507,571.170654 
	C229.172180,569.416565 226.174622,567.935059 223.411255,566.097229 
	C216.689209,561.626770 215.006866,555.115112 218.546951,547.908386 
	C218.620178,547.759277 218.692123,547.598999 218.803757,547.480835 
	C225.843216,540.027954 221.385971,533.016541 217.247208,526.692627 
	C215.667557,524.278992 211.347290,523.658997 207.887726,522.169922 
M286.157104,500.635498 
	C287.363525,506.925018 292.516968,509.906738 296.465515,506.251221 
	C298.100281,504.737762 299.507385,501.292450 298.877594,499.462311 
	C298.154785,497.361786 295.257172,495.155457 292.945526,494.656311 
	C289.485016,493.909027 287.202057,496.480042 286.157104,500.635498 
M272.126678,503.551971 
	C273.197937,497.363831 269.067291,492.605774 264.236267,494.905090 
	C262.108826,495.917664 259.815155,498.812195 259.637238,501.016968 
	C259.481567,502.945770 261.753693,505.828888 263.721222,506.997742 
	C266.890350,508.880463 269.699554,506.971649 272.126678,503.551971 
M313.025055,502.181976 
	C314.226959,506.313171 317.001465,508.318512 321.203491,507.409546 
	C324.750580,506.642273 326.432373,504.033478 325.992798,500.364807 
	C325.557770,496.734283 323.324738,494.516724 319.751160,494.514069 
	C315.470703,494.510895 313.046021,496.930634 313.025055,502.181976 
z"/>
<path fill="#282D37" opacity="1.000000" stroke="none" 
	d="
M955.027588,525.800659 
	C953.914917,526.857788 952.821289,527.891052 951.694824,527.928162 
	C946.373779,528.103455 941.043823,528.006348 935.355591,528.006348 
	C935.355591,505.850067 935.355591,483.803802 935.355591,461.455292 
	C941.712646,461.455292 948.119629,461.455292 954.824707,461.455292 
	C954.961548,463.035889 955.096069,464.589447 955.238220,466.231598 
	C972.379272,457.511047 981.375488,458.140076 993.235107,468.758423 
	C1002.098328,461.636841 1012.138428,458.921570 1023.403503,460.856934 
	C1033.875366,462.656036 1039.803711,467.890015 1040.870605,478.371399 
	C1041.946167,488.937561 1041.783691,499.634460 1042.044312,510.277008 
	C1042.182983,515.937195 1042.068970,521.603638 1042.068970,527.636780 
	C1035.451782,527.636780 1028.921753,527.636780 1021.966125,527.636780 
	C1021.966125,516.301331 1021.986633,505.017090 1021.951782,493.733002 
	C1021.943054,490.905334 1021.997559,488.044250 1021.604980,485.257446 
	C1020.586914,478.032654 1017.285156,475.039551 1010.979858,475.252716 
	C1004.058105,475.486755 999.427795,479.387085 999.030701,486.154694 
	C998.601807,493.462616 998.796692,500.808350 998.760681,508.137817 
	C998.729004,514.596008 998.753967,521.054504 998.753967,527.755371 
	C991.879089,527.755371 985.446777,527.755371 978.441956,527.755371 
	C978.441956,518.958862 978.480408,510.170746 978.427734,501.383209 
	C978.395813,496.054810 978.418518,490.714111 978.062988,485.402649 
	C977.634827,479.006348 975.034363,476.116058 969.699524,475.386841 
	C963.328552,474.516022 957.872803,477.416931 956.118042,482.970062 
	C955.380615,485.303558 955.107788,487.866425 955.085571,490.329254 
	C954.980164,501.991272 955.034241,513.654785 955.027588,525.800659 
z"/>
<path fill="#282D37" opacity="1.000000" stroke="none" 
	d="
M596.252258,482.410950 
	C590.390991,497.822357 584.669373,512.872375 578.996826,527.793152 
	C566.003235,528.570251 566.000854,528.571167 561.492554,516.967834 
	C558.908508,510.317139 556.333862,503.662872 553.340759,495.941650 
	C549.693054,505.440704 546.444885,514.052856 543.054443,522.608704 
	C542.306824,524.495361 541.261719,527.516602 539.997314,527.712219 
	C536.130127,528.310486 532.085327,527.853149 528.121948,527.607910 
	C527.681152,527.580627 527.223572,526.314209 526.934875,525.560669 
	C518.916321,504.627777 510.917328,483.687469 502.931122,462.742249 
	C502.821564,462.454926 502.917419,462.089294 502.917419,461.457581 
	C509.449860,461.457581 516.007751,461.457581 522.866882,461.457581 
	C526.601318,473.143646 530.385254,484.984619 534.478088,497.792053 
	C538.527710,484.995667 542.271301,473.166382 545.933777,461.593506 
	C546.472229,461.383087 546.616882,461.283081 546.766846,461.274200 
	C560.472656,460.458649 560.478577,460.457214 564.551697,473.401367 
	C567.023315,481.255859 569.473328,489.117157 572.268616,498.047729 
	C576.430237,484.937408 580.191528,473.088287 583.920471,461.341064 
	C590.796875,461.341064 597.240173,461.341064 604.284180,461.341064 
	C601.562988,468.481079 598.977417,475.265320 596.252258,482.410950 
z"/>
<path fill="#282D36" opacity="1.000000" stroke="none" 
	d="
M678.052307,495.000000 
	C678.052307,483.549469 678.052307,472.598907 678.052307,461.405640 
	C684.798401,461.405640 691.074768,461.405640 697.702087,461.405640 
	C697.909973,462.418701 698.147766,463.577850 698.405029,464.831696 
	C711.752686,455.628296 728.826660,461.871338 737.064270,470.866455 
	C747.894287,482.692444 749.048340,502.264984 739.794556,515.825073 
	C730.987732,528.730347 716.207764,532.041748 698.091675,524.826355 
	C698.091675,530.770630 698.091675,536.513367 698.091675,542.256104 
	C698.091675,547.872498 698.091675,553.488892 698.091675,559.311401 
	C691.313843,559.311401 685.035889,559.311401 678.052307,559.311401 
	C678.052307,537.968811 678.052307,516.734436 678.052307,495.000000 
M715.195740,513.065430 
	C727.189209,506.207520 729.600342,489.602570 720.036438,479.728424 
	C715.054993,474.585358 707.432129,474.305420 702.100403,479.069672 
	C693.940186,486.361359 693.375977,501.378387 700.993347,509.334900 
	C704.704163,513.211060 709.020508,515.181885 715.195740,513.065430 
z"/>
<path fill="#272C36" opacity="1.000000" stroke="none" 
	d="
M1120.883789,507.725159 
	C1115.387695,521.556335 1105.438477,528.876953 1090.964966,528.935303 
	C1085.865234,528.955872 1080.757080,526.906006 1075.314575,525.728210 
	C1075.314575,536.217896 1075.314575,547.558777 1075.314575,559.209595 
	C1068.390625,559.209595 1061.985352,559.209595 1055.285889,559.209595 
	C1055.285889,526.631165 1055.285889,494.115021 1055.285889,461.377869 
	C1061.771118,461.377869 1068.049194,461.377869 1074.678955,461.377869 
	C1074.872803,462.431824 1075.086548,463.594177 1075.320190,464.864349 
	C1092.341309,452.801819 1121.759888,465.444153 1122.793945,493.099915 
	C1122.970337,497.819122 1121.625610,502.595215 1120.883789,507.725159 
M1073.687134,487.601379 
	C1073.309937,490.054932 1072.627319,492.506165 1072.608765,494.962433 
	C1072.531372,505.187347 1079.218872,513.772522 1087.208618,513.980713 
	C1095.233765,514.189758 1102.225220,506.032776 1102.818115,495.768921 
	C1103.338013,486.768585 1097.782715,477.763947 1090.651001,476.047028 
	C1083.527344,474.331940 1077.530029,478.191406 1073.687134,487.601379 
z"/>
<path fill="#292E38" opacity="1.000000" stroke="none" 
	d="
M618.992188,477.920013 
	C615.801514,476.095581 612.939575,474.426147 609.780029,472.583099 
	C617.519226,463.608612 627.381958,460.209473 638.613647,460.310364 
	C642.227539,460.342804 645.935608,460.923401 649.423157,461.892120 
	C659.178467,464.601746 665.110779,471.130768 665.446655,481.092957 
	C665.966614,496.516998 665.583801,511.971497 665.583801,527.999512 
	C659.394531,527.999512 653.461304,528.148376 647.549500,527.859131 
	C646.512512,527.808289 645.565552,525.919250 644.370850,524.662109 
	C637.539307,529.091125 629.672180,530.132385 621.384033,528.129272 
	C610.986877,525.616394 606.635803,520.902588 605.434326,511.020691 
	C604.328979,501.929413 608.609009,492.808838 617.077820,489.259613 
	C622.751221,486.881927 629.161133,486.134094 635.314209,485.082611 
	C638.378784,484.558899 641.606689,484.991516 645.896240,483.924805 
	C644.231201,481.871124 642.968567,478.827087 640.823242,477.955444 
	C635.124023,475.639862 629.423401,476.377380 624.360291,480.889313 
	C622.738831,479.983765 621.029907,479.029358 618.992188,477.920013 
M644.999329,508.174347 
	C645.239014,505.599182 645.478699,503.024017 645.799927,499.573029 
	C640.001648,500.067444 634.773682,499.879303 629.973511,501.221313 
	C627.933044,501.791779 625.895020,505.410583 625.455139,507.923950 
	C624.858948,511.329895 627.783508,513.340210 630.988281,513.776428 
	C636.295166,514.498779 641.325562,513.890625 644.999329,508.174347 
z"/>
<path fill="#272C36" opacity="1.000000" stroke="none" 
	d="
M868.154297,523.899414 
	C857.345520,513.249939 860.234253,495.000946 874.000854,489.039368 
	C879.903564,486.483215 886.797058,486.119751 893.290283,485.067810 
	C895.993408,484.629852 898.826660,484.995056 901.672485,484.995056 
	C899.935547,475.555145 890.667480,473.869720 880.494263,480.829529 
	C875.804321,478.142975 871.062012,475.426453 866.299683,472.698425 
	C876.272949,460.391571 897.730835,456.359222 911.325989,464.121490 
	C917.740601,467.784027 921.671631,473.312531 921.822632,480.625519 
	C922.145203,496.238556 921.921387,511.862946 921.921387,527.742981 
	C915.272766,527.742981 908.849731,527.742981 902.192017,527.742981 
	C902.077026,526.692017 901.955261,525.579224 901.800903,524.168701 
	C890.636536,530.698975 879.504822,530.946777 868.154297,523.899414 
M901.861267,500.648102 
	C896.967163,500.626953 892.012817,500.127808 887.197876,500.734894 
	C883.300476,501.226349 881.425659,504.292328 881.809937,508.421783 
	C882.186279,512.465393 885.144836,513.516602 888.393616,513.936584 
	C897.400391,515.100769 901.978699,510.856018 901.861267,500.648102 
z"/>
<path fill="#292E38" opacity="1.000000" stroke="none" 
	d="
M802.600830,517.430298 
	C794.664673,528.700195 778.322754,532.509827 764.688599,526.078552 
	C759.823975,523.783936 755.473938,520.398376 750.739319,517.416504 
	C755.536011,512.577454 759.614929,508.462494 763.817810,504.222443 
	C766.526306,506.216217 769.013977,509.068634 772.098206,510.054230 
	C775.790100,511.234039 779.996704,511.034546 783.968628,510.939850 
	C784.934204,510.916840 786.723877,508.835663 786.588562,507.932526 
	C786.390808,506.612549 785.022400,504.879333 783.754822,504.419281 
	C780.024841,503.065491 775.986450,502.549377 772.279419,501.148132 
	C768.120544,499.576141 763.766235,497.971466 760.243774,495.369873 
	C750.120972,487.893188 750.596375,473.401550 760.839539,465.942932 
	C772.098999,457.744232 786.946228,458.490662 799.274963,467.919159 
	C800.983582,469.225861 802.557800,470.708344 803.938782,471.890686 
	C799.643921,476.235779 795.496643,480.431488 791.771545,484.200073 
	C787.887512,482.103271 783.877380,479.515930 779.536011,477.736664 
	C776.415527,476.457794 772.913818,477.183685 771.747131,480.893829 
	C770.540771,484.730164 773.994324,485.565643 776.593750,486.475739 
	C782.225830,488.447601 788.143433,489.746552 793.548218,492.194977 
	C804.878479,497.327759 807.757812,505.660553 802.600830,517.430298 
z"/>
<path fill="#292E38" opacity="1.000000" stroke="none" 
	d="
M460.420776,497.682129 
	C451.717651,492.012085 448.428864,485.659729 450.249695,477.497009 
	C452.404694,467.835876 459.585541,463.275482 468.433441,461.044006 
	C479.578857,458.233063 492.938873,463.159973 501.091217,472.686401 
	C496.966675,476.757050 492.836761,480.832977 488.920563,484.698029 
	C485.465302,482.514160 482.154968,480.051758 478.509644,478.277710 
	C476.749664,477.421173 474.188751,477.304047 472.307556,477.882751 
	C470.735413,478.366425 468.884399,480.193329 468.560028,481.722961 
	C468.328888,482.812866 470.160095,484.868439 471.546265,485.650177 
	C473.672180,486.849060 476.209686,487.315002 478.567780,488.106079 
	C482.653839,489.476715 486.828156,490.636658 490.800110,492.283752 
	C497.879608,495.219574 502.106964,500.402252 501.985962,508.377594 
	C501.865234,516.333801 497.663361,521.942017 490.932190,525.528870 
	C477.278381,532.804688 458.426300,528.726440 448.338257,516.626404 
	C452.407776,512.467346 456.473785,508.311829 460.587311,504.107758 
	C463.496796,506.246796 466.012787,508.932343 469.105865,510.139954 
	C472.318878,511.394409 476.109802,511.634735 479.607422,511.467865 
	C481.031769,511.399902 482.349243,509.090790 483.715332,507.801392 
	C482.360504,506.523987 481.220184,504.664307 479.612885,504.072144 
	C473.402435,501.784241 467.042999,499.900787 460.420776,497.682129 
z"/>
<path fill="#282D36" opacity="1.000000" stroke="none" 
	d="
M837.103271,491.984283 
	C837.155701,496.469513 836.910461,500.492310 837.324341,504.446106 
	C838.123840,512.083069 842.478760,514.467529 849.512634,511.430054 
	C850.536743,510.987732 851.509277,510.425812 853.004578,509.665558 
	C853.004578,514.623535 853.193665,519.082153 852.882690,523.505676 
	C852.795837,524.740234 851.486938,526.406799 850.307129,526.968079 
	C835.488831,534.017639 820.208984,525.975525 817.947327,509.835541 
	C817.212769,504.593567 817.231567,499.234375 817.092346,493.923889 
	C816.957703,488.785950 817.063232,483.641693 817.063232,478.108032 
	C814.644958,477.945953 812.412048,477.796295 809.971069,477.632690 
	C809.971069,472.222900 809.971069,466.944550 809.971069,461.374084 
	C812.206482,461.250916 814.313721,461.134796 816.802979,460.997650 
	C816.802979,454.947815 816.802979,448.861450 816.802979,442.384644 
	C823.683655,442.384644 830.196472,442.384644 837.134766,442.384644 
	C837.134766,448.522064 837.134766,454.601654 837.134766,461.037964 
	C842.463379,461.037964 847.391602,461.037964 852.658813,461.037964 
	C852.658813,466.641022 852.658813,471.881256 852.658813,477.658051 
	C847.788025,477.658051 842.724670,477.658051 837.103394,477.658051 
	C837.103394,482.614532 837.103394,487.052582 837.103271,491.984283 
z"/>
<path fill="#FCFCFC" opacity="1.000000" stroke="none" 
	d="
M286.174347,500.249451 
	C287.202057,496.480042 289.485016,493.909027 292.945526,494.656311 
	C295.257172,495.155457 298.154785,497.361786 298.877594,499.462311 
	C299.507385,501.292450 298.100281,504.737762 296.465515,506.251221 
	C292.516968,509.906738 287.363525,506.925018 286.174347,500.249451 
z"/>
<path fill="#FCFCFC" opacity="1.000000" stroke="none" 
	d="
M271.946228,503.877228 
	C269.699554,506.971649 266.890350,508.880463 263.721222,506.997742 
	C261.753693,505.828888 259.481567,502.945770 259.637238,501.016968 
	C259.815155,498.812195 262.108826,495.917664 264.236267,494.905090 
	C269.067291,492.605774 273.197937,497.363831 271.946228,503.877228 
z"/>
<path fill="#FCFCFC" opacity="1.000000" stroke="none" 
	d="
M313.012512,501.785400 
	C313.046021,496.930634 315.470703,494.510895 319.751160,494.514069 
	C323.324738,494.516724 325.557770,496.734283 325.992798,500.364807 
	C326.432373,504.033478 324.750580,506.642273 321.203491,507.409546 
	C317.001465,508.318512 314.226959,506.313171 313.012512,501.785400 
z"/>
<path fill="#FCFCFC" opacity="1.000000" stroke="none" 
	d="
M714.823425,513.196533 
	C709.020508,515.181885 704.704163,513.211060 700.993347,509.334900 
	C693.375977,501.378387 693.940186,486.361359 702.100403,479.069672 
	C707.432129,474.305420 715.054993,474.585358 720.036438,479.728424 
	C729.600342,489.602570 727.189209,506.207520 714.823425,513.196533 
z"/>
<path fill="#FCFCFC" opacity="1.000000" stroke="none" 
	d="
M1073.803955,487.207458 
	C1077.530029,478.191406 1083.527344,474.331940 1090.651001,476.047028 
	C1097.782715,477.763947 1103.338013,486.768585 1102.818115,495.768921 
	C1102.225220,506.032776 1095.233765,514.189758 1087.208618,513.980713 
	C1079.218872,513.772522 1072.531372,505.187347 1072.608765,494.962433 
	C1072.627319,492.506165 1073.309937,490.054932 1073.803955,487.207458 
z"/>
<path fill="#FCFCFC" opacity="1.000000" stroke="none" 
	d="
M644.843018,508.534363 
	C641.325562,513.890625 636.295166,514.498779 630.988281,513.776428 
	C627.783508,513.340210 624.858948,511.329895 625.455139,507.923950 
	C625.895020,505.410583 627.933044,501.791779 629.973511,501.221313 
	C634.773682,499.879303 640.001648,500.067444 645.799927,499.573029 
	C645.478699,503.024017 645.239014,505.599182 644.843018,508.534363 
z"/>
<path fill="#FCFCFC" opacity="1.000000" stroke="none" 
	d="
M901.908691,501.102112 
	C901.978699,510.856018 897.400391,515.100769 888.393616,513.936584 
	C885.144836,513.516602 882.186279,512.465393 881.809937,508.421783 
	C881.425659,504.292328 883.300476,501.226349 887.197876,500.734894 
	C892.012817,500.127808 896.967163,500.626953 901.908691,501.102112 
z"/>
</svg>