<?xml version="1.0" encoding="UTF-8"?>
<svg version="1.1" xmlns="http://www.w3.org/2000/svg" width="212" height="205">
<path d="M0 0 C69.96 0 139.92 0 212 0 C212 67.65 212 135.3 212 205 C142.04 205 72.08 205 0 205 C0 137.35 0 69.7 0 0 Z " fill="#FFFEFE" transform="translate(0,0)"/>
<path d="M0 0 C3.68998853 0.89809245 7.18719821 1.96998938 10.75390625 3.2734375 C12.50380859 3.90378906 12.50380859 3.90378906 14.2890625 4.546875 C17.69140625 5.8984375 17.69140625 5.8984375 20.51879883 7.53222656 C24.26537184 9.14560267 25.90541964 8.9220703 29.85546875 8.109375 C38.10383043 6.70397024 46.17564403 6.52621773 54.53125 6.52783203 C57.05667431 6.52345437 59.58035064 6.48697294 62.10546875 6.44921875 C81.81086536 6.31210868 100.15763912 10.82236387 114.70703125 24.86083984 C116.04655629 26.19535986 117.36967183 27.54629508 118.69140625 28.8984375 C119.284375 29.45917969 119.87734375 30.01992188 120.48828125 30.59765625 C128.97980684 39.29462198 135.69140625 54.84533501 135.69140625 66.8984375 C136.90828125 66.8159375 138.12515625 66.7334375 139.37890625 66.6484375 C142.60839923 66.65990994 143.73263224 66.92076825 146.69140625 68.5234375 C148.69140625 70.8984375 148.69140625 70.8984375 149.25390625 73.8984375 C148.69140625 76.8984375 148.69140625 76.8984375 147.25390625 79.2109375 C143.58062517 81.62992748 140.01323711 81.71374387 135.69140625 81.8984375 C135.43746094 82.94902344 135.18351563 83.99960938 134.921875 85.08203125 C133.11564256 92.47420474 131.17392402 99.69913597 128.69140625 106.8984375 C128.69140625 107.5584375 128.69140625 108.2184375 128.69140625 108.8984375 C129.35140625 108.8984375 130.01140625 108.8984375 130.69140625 108.8984375 C138.48160462 122.6902683 138.48160462 122.6902683 138.42578125 130.6171875 C136.30542867 137.20381467 130.65209205 140.61826889 124.94140625 143.8359375 C124.27625 144.24650391 123.61109375 144.65707031 122.92578125 145.08007812 C117.69233096 148.06415122 113.52960545 148.45339344 107.69140625 146.8984375 C103.01626905 144.19724712 101.11337778 140.56297527 98.69140625 135.8984375 C94.07058252 136.45033408 90.01643474 137.40353666 85.6328125 138.93359375 C76.66309761 141.5548532 67.83811527 141.46569609 58.55053711 141.36499023 C55.63011961 141.33594957 52.71151707 141.34443969 49.79101562 141.35742188 C40.55159346 141.3453519 31.99625633 141.0590749 23.05688477 138.53930664 C20.61726355 137.76768819 20.61726355 137.76768819 17.69140625 137.8984375 C16.76328125 139.290625 16.76328125 139.290625 15.81640625 140.7109375 C13.15702339 144.70001179 11.33209299 146.19529606 6.7109375 147.42578125 C0.17134376 148.22543007 -4.35193785 145.59249775 -9.74609375 142.2734375 C-10.79373901 141.63498901 -10.79373901 141.63498901 -11.86254883 140.98364258 C-16.13815885 138.18582835 -18.50409832 135.84581796 -20.30859375 130.8984375 C-21.01005668 125.54978262 -20.55034744 122.92897697 -17.74609375 118.3359375 C-15.85696538 115.20170179 -15.31240973 114.1159484 -15.24609375 110.3359375 C-15.59671875 109.2015625 -15.94734375 108.0671875 -16.30859375 106.8984375 C-16.4684375 106.22683594 -16.62828125 105.55523437 -16.79296875 104.86328125 C-17.65312389 102.30670904 -18.42961003 100.86037856 -20.30859375 98.8984375 C-23.82275355 97.33423368 -27.28780346 96.21664161 -30.99609375 95.19921875 C-34.91985131 93.65840358 -36.05719176 92.42540347 -38.30859375 88.8984375 C-38.84204102 85.54858398 -38.84204102 85.54858398 -38.875 81.76953125 C-38.88119858 81.09801529 -38.88739716 80.42649933 -38.89378357 79.7346344 C-38.90085672 78.32188358 -38.89775142 76.90904896 -38.88500977 75.49633789 C-38.87110573 73.33779786 -38.90528113 71.1835673 -38.94335938 69.02539062 C-38.94431037 67.64843644 -38.94245278 66.27147685 -38.9375 64.89453125 C-38.9382251 63.64857178 -38.9389502 62.4026123 -38.93969727 61.11889648 C-38.30859375 57.8984375 -38.30859375 57.8984375 -35.91772461 55.50805664 C-31.15875904 52.57216631 -26.80887301 52.79058889 -21.30859375 52.8984375 C-21.16164063 52.35316406 -21.0146875 51.80789062 -20.86328125 51.24609375 C-19.54922636 46.82815057 -18.20763328 43.63399219 -15.24609375 40.0859375 C-10.9312581 34.06004634 -11.25861645 26.8923403 -10.7265625 19.75 C-10.23209805 13.29580664 -9.45813126 6.92595513 -5.64453125 1.5546875 C-3.30859375 -0.1015625 -3.30859375 -0.1015625 0 0 Z " fill="#FF2E63" transform="translate(50.30859375,28.1015625)"/>
<path d="M0 0 C2.60964149 1.03012164 3.83498357 1.58694861 5.375 3.9375 C5.91900387 7.59009739 5.81274093 9.2808886 3.75 12.375 C1.375 13.9375 1.375 13.9375 -1.6875 13.875 C-6.04403019 12.48461802 -6.04403019 12.48461802 -7.625 9.9375 C-8.125 7 -8.125 7 -7.625 3.9375 C-5.12171555 1.14812589 -3.80877374 -0.09068509 0 0 Z " fill="#FFF3F6" transform="translate(133.625,95.0625)"/>
<path d="M0 0 C1.9375 1.6875 1.9375 1.6875 3 4 C2.92897215 7.4803645 2.61415498 9.29485909 0.3125 11.9375 C-2.89943934 13.41325591 -4.66474802 13.06444212 -8 12 C-9.9375 10.3125 -9.9375 10.3125 -11 8 C-10.92897215 4.5196355 -10.61415498 2.70514091 -8.3125 0.0625 C-5.10056066 -1.41325591 -3.33525198 -1.06444212 0 0 Z " fill="#FFF1F4" transform="translate(83,96)"/>
<path d="M0 0 C0.99 0.66 1.98 1.32 3 2 C3.51020607 5.93587537 3.56285485 8.13406947 1.375 11.5 C-1 13 -1 13 -4.0625 12.9375 C-8.58701299 11.49350649 -8.58701299 11.49350649 -10 9 C-9.93232476 5.21018637 -9.78500575 2.89714943 -7.25 0 C-4.35270461 -1.28768684 -2.97735929 -0.9924531 0 0 Z " fill="#FFF4F6" transform="translate(109,96)"/>
</svg>
